<svg xmlns="http://www.w3.org/2000/svg" width="64" height="64" stroke-linecap="round" stroke-linejoin="round">
  <path fill="none" stroke="#afc639" stroke-width="2" d="
    M29.6 44.6l-3-20c-0.2-2 1-3 1.9-3.1s2.4 0 3 2s4 13 4 13
    q14 0 17 4q1 4-4 15l-16 2q-5-8-11-10q-3-1-3-3q0-2.3 3-2t8 2.1
  "/>
  <path stroke="none" fill="#afc639" d="
    M29.5 20.5h12q5 0 5 5v7.9q-3-0.6-7-0.8v-3.1q0-2-2-2h-4z
    M38.5 6.5l-2 7h-17q-2 0-2 2v18q0 2 2 2h4.7l0.5 3.6q-7.5-2.1-9.9 3.4q-4.5 0-4.5-5v-26q0-5 5-5z
    M47.5 6.5l-2 7h-6l2-7z
  "/>
</svg>
